{
  "accessors": [
    {
      "bufferView": 2,
      "componentType": 5126,
      "count": 101,
      "max": [
        99.24038696289063,
        99.24038696289063,
        33.64137649536133
      ],
      "min": [
        -99.24038696289063,
        -97.16876220703125,
        -37.5
      ],
      "type": "VEC3"
    },
    {
      "bufferView": 2,
      "byteOffset": 1212,
      "componentType": 5126,
      "count": 101,
      "max": [
        0.5543511509895325,
        0.5941250920295715,
        0.9922198057174683
      ],
      "min": [
        -0.575287401676178,
        -0.6006519198417664,
        -0.9970532059669495
      ],
      "type": "VEC3"
    },
    {
      "bufferView": 1,
      "componentType": 5126,
      "count": 101,
      "max": [
        1.0,
        1.0
      ],
      "min": [
        0.0,
        0.0
      ],
      "type": "VEC2"
    },
    {
      "bufferView": 0,
      "componentType": 5125,
      "count": 336,
      "type": "SCALAR"
    },
    {
      "bufferView": 2,
      "byteOffset": 2424,
      "componentType": 5126,
      "count": 300,
      "max": [
        192.1799774169922,
        192.1799774169922,
        6.912919044494629
      ],
      "min": [
        -192.1799774169922,
        -192.1799774169922,
        -0.6632764339447021
      ],
      "type": "VEC3"
    },
    {
      "bufferView": 2,
      "byteOffset": 6024,
      "componentType": 5126,
      "count": 300,
      "max": [
        0.6686908006668091,
        0.6686908006668091,
        0.9996146559715271
      ],
      "min": [
        -0.6686908006668091,
        -0.6686908006668091,
        -0.9545857906341553
      ],
      "type": "VEC3"
    },
    {
      "bufferView": 1,
      "byteOffset": 808,
      "componentType": 5126,
      "count": 300,
      "max": [
        1.0,
        524.5166015625
      ],
      "min": [
        -1794.376708984375,
        0.0
      ],
      "type": "VEC2"
    },
    {
      "bufferView": 0,
      "byteOffset": 1344,
      "componentType": 5125,
      "count": 528,
      "type": "SCALAR"
    }
  ],
  "asset": {
    "extras": {
      "author": "herrwoland (https://sketchfab.com/herrwoland)",
      "license": "CC-BY-4.0 (http://creativecommons.org/licenses/by/4.0/)",
      "source": "https://sketchfab.com/3d-models/low-poly-sun-8c1d2c3ed23e4e4984735bfa5bdfa008",
      "title": "Low poly sun"
    },
    "generator": "Sketchfab-12.68.0",
    "version": "2.0"
  },
  "bufferViews": [
    {
      "buffer": 0,
      "byteLength": 3456,
      "name": "floatBufferViews",
      "target": 34963
    },
    {
      "buffer": 0,
      "byteLength": 3208,
      "byteOffset": 3456,
      "byteStride": 8,
      "name": "floatBufferViews",
      "target": 34962
    },
    {
      "buffer": 0,
      "byteLength": 9624,
      "byteOffset": 6664,
      "byteStride": 12,
      "name": "floatBufferViews",
      "target": 34962
    }
  ],
  "buffers": [
    {
      "byteLength": 16288,
      "uri": "scene.bin"
    }
  ],
  "materials": [
    {
      "doubleSided": true,
      "name": "material",
      "pbrMetallicRoughness": {
        "baseColorFactor": [
          1.0,
          0.6435635529447916,
          0.0,
          1.0
        ],
        "metallicFactor": 0.0,
        "roughnessFactor": 0.6
      }
    },
    {
      "doubleSided": true,
      "name": "Mat.1",
      "pbrMetallicRoughness": {
        "baseColorFactor": [
          0.9956173780487805,
          0.6882297154518556,
          0.0,
          1.0
        ],
        "metallicFactor": 0.08098323170731707
      }
    }
  ],
  "meshes": [
    {
      "name": "Object_0",
      "primitives": [
        {
          "attributes": {
            "NORMAL": 1,
            "POSITION": 0,
            "TEXCOORD_0": 2
          },
          "indices": 3,
          "material": 1,
          "mode": 4
        }
      ]
    },
    {
      "name": "Object_1",
      "primitives": [
        {
          "attributes": {
            "NORMAL": 5,
            "POSITION": 4,
            "TEXCOORD_0": 6
          },
          "indices": 7,
          "material": 0,
          "mode": 4
        }
      ]
    }
  ],
  "nodes": [
    {
      "children": [
        1
      ],
      "matrix": [
        -4.440892098500626e-16,
        1.0,
        1.1102230246251565e-16,
        0.0,
        -1.0,
        -3.3306690738754696e-16,
        -7.395570986446986e-32,
        0.0,
        -1.1102230246251565e-16,
        -2.220446049250313e-16,
        1.0,
        0.0,
        4.57763671875e-05,
        -1.929355621337891,
        1.9293098449707027,
        1.0
      ],
      "name": "Sketchfab_model"
    },
    {
      "children": [
        2,
        3
      ],
      "name": "1049e8ffab824ba2b4334209bc49b9f0.obj.cleaner.materialmerger.gles"
    },
    {
      "mesh": 0,
      "name": "Object_2"
    },
    {
      "mesh": 1,
      "name": "Object_3"
    }
  ],
  "scene": 0,
  "scenes": [
    {
      "name": "Sketchfab_Scene",
      "nodes": [
        0
      ]
    }
  ]
}
